PathFileType	4	(X/Y/Z)	/Users/visionmauri/Downloads/Videos/OAW01-top_Sports2D/OAW01-top_Sports2D_px_person00.trc
DataRate	CameraRate	NumFrames	NumMarkers	Units	OrigDataRate	OrigDataStartFrame	OrigNumFrames
26.0	26.0	13	22	m	26.0	0	2035
Frame#	Time	Hip			RHip			RKnee			RAnkle			RBigToe			RSmallToe			RHeel			LHip			LKnee			LAnkle			LBigToe			LSmallToe			LHeel			Neck			Head			Nose			RShoulder			RElbow			RWrist			LShoulder			LElbow			LWrist			
		X1	Y1	Z1	X2	Y2	Z2	X3	Y3	Z3	X4	Y4	Z4	X5	Y5	Z5	X6	Y6	Z6	X7	Y7	Z7	X8	Y8	Z8	X9	Y9	Z9	X10	Y10	Z10	X11	Y11	Z11	X12	Y12	Z12	X13	Y13	Z13	X14	Y14	Z14	X15	Y15	Z15	X16	Y16	Z16	X17	Y17	Z17	X18	Y18	Z18	X19	Y19	Z19	X20	Y20	Z20	X21	Y21	Z21	X22	Y22	Z22
0	0.0	495.07316472615855	450.8668851580103	0.0	484.0846910005497	452.6981206691514	0.0	483.62683527104	502.14615260386	0.0	482.2532789754664	546.0999312962779	0.0	483.1688479911114	559.8352536032398	0.0	476.30119835971976	558.9195341875551	0.0	484.08457493330627	553.4253478991989	0.0	506.0616247894098	453.15611763041505	0.0	505.6036668427581	502.6040269052252	0.0	504.23000325639947	547.4733980427319	0.0	500.10955835954593	560.750926259135	0.0	507.89284767633774	560.2930088236017	0.0	504.6879858294965	552.9674531320583	0.0	496.90453664041155	388.1412617063168	0.0	498.2784013312983	367.9952833356405	0.0	497.8201633091047	367.9957869316352	0.0	476.759086873987	391.34625422848677	0.0	471.7227680505379	426.6005259560835	0.0	470.3491429339665	455.4448821652355	0.0	516.1343134652734	391.80414954707095	0.0	521.6284312946442	428.8897781337116	0.0	522.5440796628001	460.48103142958075	0.0
1	0.038480447772483176	495.1357861653233	451.4438694687504	0.0	483.8902599409138	453.0796988334792	0.0	483.38122832583286	501.9000745817527	0.0	482.04597070764555	545.763327398445	0.0	483.05692689767193	559.330628053068	0.0	476.13330907217875	558.2908619354314	0.0	483.5603581421233	552.9456229281423	0.0	505.94382071956153	453.37860400816254	0.0	505.49543356033786	502.22040326875725	0.0	504.18468393579604	546.7987165681891	0.0	500.0571562950515	560.3402184691271	0.0	507.5305603789345	559.8778985862358	0.0	504.1237866010691	552.4298029831905	0.0	496.9859152837288	388.3269464377058	0.0	498.93967956339037	367.43472085719253	0.0	498.14779090677405	374.7882919726356	0.0	476.8833388020396	391.37401655708067	0.0	471.7241940731566	426.60140029439526	0.0	470.2185851592278	455.30864649442407	0.0	516.4410002231656	392.2479864289169	0.0	521.8535539616635	429.466866145662	0.0	522.621340713957	461.1468798956903	0.0
2	0.07696089554496635	495.2164263259738	452.19202906376375	0.0	483.79430887727045	453.20991725081865	0.0	483.0630366182003	501.7431001794045	0.0	482.0382439709841	545.2543845836423	0.0	482.9468539192304	558.8874141998159	0.0	475.9142885518941	557.6837497517099	0.0	483.11634495145165	552.4199792403824	0.0	505.9060096138046	453.5437752310068	0.0	505.3662772115945	501.70357039341775	0.0	504.13952663736495	546.0046298430717	0.0	500.0081689993419	559.9431215225419	0.0	507.23926685512595	559.4278479370906	0.0	503.3939023156253	552.2258525291471	0.0	496.9599473951618	388.51694157079265	0.0	499.6546056445515	366.85115042976014	0.0	498.5511156374025	380.9975110571828	0.0	476.9355261292577	391.405631464872	0.0	471.7090569133353	426.5945977543342	0.0	470.04588881540724	454.8190909529074	0.0	516.820329834595	392.64860320325005	0.0	522.032605882566	429.868639406764	0.0	522.5517036495274	460.7608690794015	0.0
3	0.11544134331744953	495.26972616200175	452.4327541810401	0.0	483.88191879435493	452.9346631697796	0.0	482.9455847473611	501.80562959212637	0.0	482.31085163498784	544.8251784559787	0.0	483.01734252657246	558.9326578195913	0.0	475.89706127379696	557.8645989526548	0.0	482.8680736153308	552.2177399358212	0.0	506.12989173476416	453.48447805339424	0.0	505.29755014559925	501.380602138919	0.0	504.123274888222	545.801167898086	0.0	500.02604564106895	560.0107985663316	0.0	507.46472947307495	559.2713624189739	0.0	502.91423485858706	552.6125193100653	0.0	496.7490813021514	388.1022405385106	0.0	499.74542757924576	366.7705195683132	0.0	498.7476292187472	382.30334493622655	0.0	476.8009998881021	391.4290205650497	0.0	471.6983512970204	426.6622665073473	0.0	469.9615845456058	454.2619224098632	0.0	517.0013859937578	392.82102293478994	0.0	522.037678952184	430.04771605851	0.0	522.4675795322969	459.5617742348385	0.0
4	0.1539217910899327	495.27881162996965	451.73712516404754	0.0	484.04655091555463	452.6619787319758	0.0	483.1363292277998	501.97457334024216	0.0	482.4477733649099	544.7777969682955	0.0	483.30361704946546	559.2278294120849	0.0	476.182675559354	558.7438426530643	0.0	482.6269024421836	552.2741669605972	0.0	506.4932087328248	453.2395020512086	0.0	505.30421043144315	501.4209083909264	0.0	504.11634845217793	546.3136536537136	0.0	500.10162839176917	560.4534746768736	0.0	508.0569380396003	559.361116077108	0.0	502.85556377528485	553.1631899359209	0.0	496.6138209154356	386.8119916771061	0.0	499.4066659148665	367.6156928773245	0.0	498.7007337259949	380.99328413688676	0.0	476.6609667602159	391.46350940583636	0.0	471.6989296115123	426.75592924150067	0.0	470.020502144543	454.25350563050347	0.0	516.9269191162809	392.924338115123	0.0	521.9076415552242	430.31778177839146	0.0	522.4875564475942	458.93220167004677	0.0
5	0.19240223886241586	495.29955903329375	450.967993416655	0.0	484.12047822535595	452.8448171576295	0.0	483.2901128962232	502.1000939498197	0.0	482.1015802820748	545.0718742291657	0.0	483.5574461996319	559.0908671393029	0.0	476.3869454706307	558.9003045796493	0.0	482.3395540540979	552.080496553186	0.0	506.63405223285946	453.0208133798287	0.0	505.29451895729284	501.5958753600996	0.0	504.07228064901636	546.5623425694738	0.0	500.1749536717474	560.4946355805299	0.0	508.2176617343388	559.2875339322422	0.0	502.9080597645927	553.345711218898	0.0	496.9174436420548	385.9145131785526	0.0	499.57487783111077	368.32883819552177	0.0	498.78821440556607	382.6227047942844	0.0	476.8166945062432	391.49657435547385	0.0	471.6920350465584	426.77301874192165	0.0	470.1152972351634	454.84494580145935	0.0	516.8740501054295	393.12887887672167	0.0	521.8563019379874	430.68735221937607	0.0	522.4969760407727	459.51644401703544	0.0
6	0.23088268663489905	495.3993775303096	450.88662603304505	0.0	484.03888950928217	453.1868837032853	0.0	483.2142556779332	502.20727804616797	0.0	481.7720636810301	545.3604496076425	0.0	483.62045199738225	558.724660151336	0.0	476.2680656063145	557.9928229730293	0.0	482.30900764202124	551.7379307876666	0.0	506.5808446635649	452.94877040388053	0.0	505.24955777052594	501.64262618842315	0.0	504.0763891304491	546.2628341960241	0.0	500.33190679620367	560.0822698166492	0.0	507.91036453324216	559.1426164126121	0.0	502.9344445831823	553.3235449185985	0.0	497.40199672806403	386.2323875405726	0.0	499.9754255268585	367.3932087887738	0.0	499.1373591313692	385.2881559712516	0.0	477.1007508827789	391.4127862481359	0.0	471.6800390500917	426.86137063908376	0.0	470.1408843870582	455.3791690356717	0.0	516.9041672712441	393.17644801199583	0.0	521.9837769695401	430.8382641420189	0.0	522.4745639691679	460.6348165926193	0.0
7	0.26936313440738224	495.4619949604223	450.9332233056792	0.0	483.8593578890737	453.2180475509992	0.0	483.1898701635693	502.2522172196127	0.0	481.9646933036999	545.40382088599	0.0	483.63240999681045	558.9009364214467	0.0	476.1645138792017	557.5417734151262	0.0	482.6101333756401	551.9473387709713	0.0	506.5726703149041	452.98215775977894	0.0	505.28828124677534	501.4502628875694	0.0	504.29661312717303	546.1729026598425	0.0	500.5157303714719	559.9978857521592	0.0	507.84991972790175	559.3992620131959	0.0	503.0310407264796	553.450497598613	0.0	497.4619028348589	386.5763164808238	0.0	499.6276777897141	365.6962147655877	0.0	499.52266187494	385.4791205146741	0.0	477.10975185557004	391.1825504940063	0.0	471.59667899718835	427.17475232511055	0.0	470.1242856659896	455.57851826185123	0.0	516.8288628869594	392.91745192099984	0.0	522.134167044251	430.88563242360584	0.0	522.5172766987822	461.60455450750464	0.0
8	0.3078435821798654	495.19769069914304	450.7263475226322	0.0	483.7034231389779	453.1428583175518	0.0	483.3841323801808	502.1117698321647	0.0	482.2053761215035	545.3856069406803	0.0	483.6727906197517	559.5364629195266	0.0	476.32610331359217	558.1630523824457	0.0	482.95328185460716	552.7227588964595	0.0	506.50783159791126	452.95016378724137	0.0	505.4747272863254	501.18608153460826	0.0	504.57603111662155	546.3472420787712	0.0	500.364313935648	560.3473363672223	0.0	508.0570626190772	559.9701254179357	0.0	503.1583569532762	553.4743975979459	0.0	497.1421496176065	386.2033669112569	0.0	498.77559912359465	364.8041635640015	0.0	499.7528192673493	384.500172552411	0.0	476.8654591332198	390.9616715379201	0.0	471.4069968108592	427.3353875820106	0.0	470.22351122909583	455.5608549381488	0.0	516.6502734450632	392.60591991848446	0.0	522.1054671000454	430.84570547909885	0.0	522.5026338358367	461.9223623919792	0.0
9	0.34632402995234857	494.78209539521356	450.77623964264006	0.0	483.6252718647669	453.2524968752146	0.0	483.5391456364094	501.81960651491687	0.0	482.0638097009818	545.4525115498751	0.0	483.53345867453913	559.6608622387155	0.0	476.4997751987582	558.6374203606453	0.0	483.0375442095992	553.1190492762116	0.0	506.3512245626209	452.8197327061883	0.0	505.6113163040486	501.0559126412021	0.0	504.47575456360084	546.1881482611866	0.0	499.98044460119746	560.3646703479105	0.0	507.944220848642	560.0151159229326	0.0	503.1435907879901	552.8418716032355	0.0	496.9718003175076	385.6683421995391	0.0	498.6105417721181	364.02101468342784	0.0	499.58257226404106	383.5448416289095	0.0	476.6755764319228	390.90162776521413	0.0	471.282201173871	426.8454405156773	0.0	470.37425112983215	454.8376242579328	0.0	516.5886659133067	392.4549515392761	0.0	521.8853089244807	430.0673234885833	0.0	522.2553374077727	460.3422341813774	0.0
10	0.38480447772483173	494.85662443094986	451.1960250599181	0.0	483.625931880089	453.44842377630255	0.0	483.47486423327956	501.67881832043014	0.0	482.0335021594783	545.3322841901783	0.0	483.3140460067505	559.0979943715892	0.0	476.49002634300865	558.4835586336511	0.0	482.8235533873124	552.8187337146894	0.0	506.41935988946193	452.8776209542568	0.0	505.4932593633276	500.9926937530762	0.0	504.11318098869623	545.8261536769489	0.0	499.96033831382766	559.9017594265038	0.0	507.62009150809024	559.304218804665	0.0	503.0170197575897	551.9273976684261	0.0	497.05219412836055	385.24582965005595	0.0	499.09531222859556	362.94109559243157	0.0	498.8273186372424	380.94432108925594	0.0	476.6426436078279	391.02344103702325	0.0	471.30640441912516	426.2990996264429	0.0	470.28816262503886	453.70294296180504	0.0	516.6679007102568	392.3744551823282	0.0	521.6576527031914	428.6189156117835	0.0	522.0322147042702	457.1590857568084	0.0
11	0.42328492549731495	495.3480790519004	451.61683954738197	0.0	483.6301247325546	453.743878367142	0.0	483.35695535329336	502.05040216111445	0.0	482.35260715131284	545.0788775545228	0.0	483.4856797582249	558.8874041803094	0.0	476.45846646813925	558.459445141779	0.0	482.6243128726824	552.627647388565	0.0	506.7132442927595	453.38317954853034	0.0	505.2833482085339	501.11810012776283	0.0	504.1043100869202	545.7538369031854	0.0	500.3243400699761	559.7774423039025	0.0	507.6753072725624	558.9141993946047	0.0	503.0237166131017	551.8297987501705	0.0	497.0661560090269	385.08186629551045	0.0	498.9192640985069	362.98945051210075	0.0	497.9700141749219	375.92130629091787	0.0	476.6750372200496	391.1533151305155	0.0	471.33598603254984	426.6994044705458	0.0	470.0799546649892	453.9135115388356	0.0	516.6727659125987	392.2208101149963	0.0	521.642572645704	427.90717821469633	0.0	522.1636907577125	455.8783385143052	0.0
12	0.4617653732697981	495.4564735903904	452.0247291327054	0.0	483.53640022187386	454.12827811282284	0.0	483.3458564400678	502.7965960865697	0.0	482.43470848284295	545.2958730036346	0.0	483.83483051306024	559.342524205895	0.0	476.50659826848494	558.5968890155525	0.0	482.7248770504911	552.8886178648311	0.0	506.7505082942673	454.1346059730928	0.0	505.21651917217577	501.7697056740402	0.0	504.3979682171586	545.8764365196839	0.0	500.50420918213547	560.2343641687952	0.0	507.9409441587427	559.3143140036821	0.0	503.1499471635271	552.4317824072525	0.0	496.90643757820607	385.5637346051913	0.0	498.10821508775786	364.6574910369513	0.0	497.8084271488239	372.17816389115137	0.0	476.7009441733151	391.13004369840576	0.0	471.26491082914515	427.5292335898994	0.0	470.059569177466	455.6417840224811	0.0	516.5262042975742	392.0710795006591	0.0	521.7854908970533	428.53878656825424	0.0	522.3870098376042	457.9656079335843	0.0
